<svg width="100" height="100" viewBox="0 0 100 100" fill="none" xmlns="http://www.w3.org/2000/svg">
<g clip-path="url(#clip0_1129_2)">
<path d="M78 0H22C9.84974 0 0 9.84974 0 22V78C0 90.1503 9.84974 100 22 100H78C90.1503 100 100 90.1503 100 78V22C100 9.84974 90.1503 0 78 0Z" fill="#3A6DFF"/>
<path d="M79.1961 47.7123C83.9171 47.3739 84.4229 54.6679 79.7027 55.0062L66.549 55.9913C64.567 56.1333 62.8467 54.6158 62.7069 52.6017C62.6099 51.2051 62.8196 49.1974 62.8739 47.7402L56.5616 53.652L68.7458 66.4798C70.8927 68.7479 69.378 72.4785 66.3665 72.6564L45.0101 74.7412C40.3079 75.1926 39.6328 67.9272 44.3346 67.4759L58.3996 66.1029L48.9235 56.1262C48.6541 55.8616 48.4265 55.557 48.2495 55.2213L22.1805 81.8827C18.8482 85.2877 13.7538 80.139 17.0858 76.7341L57.6351 35.2634L53.3073 30.7431L46.8862 36.6966C43.3919 39.9281 38.5506 34.5221 42.0449 31.2904L51.0329 22.9571C52.5019 21.5986 54.7767 21.7075 56.1135 23.2002L65.2489 32.7443C67.5001 35.0961 70.4549 37.186 70.3295 40.5463L70.0365 48.3983L79.1961 47.7123ZM74.3738 20C70.4875 20 67.337 23.2015 67.337 27.1509C67.337 31.1002 70.4875 34.3017 74.3738 34.3017C78.2601 34.3017 81.4105 31.1002 81.4105 27.1509C81.4105 23.2015 78.2601 20 74.3738 20Z" fill="#0A0A0F"/>
</g>
<defs>
<clipPath id="clip0_1129_2">
<rect width="100" height="100" fill="white"/>
</clipPath>
</defs>
</svg>
